# xmcd
#
# Track frame offsets:
#	150
#	17477
#	31102
#	44555
#	57057
#	68315
#	82687
#	96745
#	108150
#
# Disc length: 1580 seconds
#
# Revision: 0
# Processed by: cddbd v1.5.2PL0 Copyright (c) Steve Scherf et al.
# Submitted via: EasyCDDAExtractor 10.0.6.1
#
DISCID=5f062a09
DTITLE=Various Artist - CDX 12A August 1991
DYEAR=1991
DGENRE=Country
TTITLE0=Travis Tritt - Anymore
TTITLE1=Lee Greenwood - Between A Rock And A Hardplace
TTITLE2=Sammy Kershaw - Cadillac Style
TTITLE3=Ray Price - Don't Woory, I'm Not Staying Long
TTITLE4=Davis Daniel - For Crying Out Loud
TTITLE5=Buck Owens - Forever Yours
TTITLE6=Patty Loveless - Hurt Me Bad
TTITLE7=Jerry Lansdowne - I Give You What You Need
TTITLE8=The Kentucky Headhunters - It's Chitlin' Time
EXTD=
EXTT0=
EXTT1=
EXTT2=
EXTT3=
EXTT4=
EXTT5=
EXTT6=
EXTT7=
EXTT8=
PLAYORDER=
